<?xml version="1.0" standalone="no"?>
<!DOCTYPE svg PUBLIC "-//W3C//DTD SVG 20010904//EN"
 "http://www.w3.org/TR/2001/REC-SVG-20010904/DTD/svg10.dtd">
<svg version="1.0" xmlns="http://www.w3.org/2000/svg"
 width="512.000000pt" height="512.000000pt" viewBox="0 0 512.000000 512.000000"
 preserveAspectRatio="xMidYMid meet">

<g transform="translate(0.000000,512.000000) scale(0.100000,-0.100000)"
fill="#000000" stroke="none">
<path d="M1563 4095 c-172 -39 -276 -153 -313 -343 -16 -79 -7 -297 15 -402
36 -167 106 -342 182 -457 37 -57 38 -80 6 -151 -20 -43 -56 -61 -267 -132
-460 -156 -578 -247 -646 -492 -19 -70 -41 -273 -31 -284 2 -2 120 -4 261 -4
l257 0 23 25 c32 34 155 113 255 162 108 54 272 118 495 192 102 33 200 70
218 81 l33 21 -19 32 c-94 152 -141 256 -197 427 -128 396 -137 777 -24 1028
36 81 107 180 160 225 l40 35 -58 22 c-75 29 -293 38 -390 15z"/>
<path d="M3225 4099 c-22 -5 -59 -16 -82 -25 l-43 -16 59 -59 c149 -149 216
-342 215 -624 -1 -340 -101 -705 -275 -996 -31 -52 -21 -82 33 -104 24 -10
126 -46 228 -80 216 -73 362 -131 462 -181 95 -48 239 -137 262 -163 18 -20
28 -21 279 -21 l260 0 -6 108 c-10 193 -68 335 -176 434 -73 66 -249 151 -475
228 -273 93 -294 108 -312 217 -5 36 -2 49 30 101 117 194 187 449 187 687 0
288 -98 437 -323 490 -69 16 -258 19 -323 4z"/>
<path d="M2388 4040 c-150 -27 -253 -77 -333 -161 -160 -167 -202 -455 -124
-844 42 -209 138 -454 238 -606 47 -71 48 -73 39 -123 -23 -124 -59 -151 -333
-242 -559 -186 -733 -289 -843 -501 -67 -129 -102 -272 -117 -481 l-5 -82
1655 0 1655 0 -5 83 c-15 196 -49 346 -106 459 -110 218 -264 314 -809 502
-131 46 -259 95 -284 110 -54 32 -82 80 -98 167 -10 58 -10 59 30 122 226 358
328 906 227 1225 -59 186 -183 303 -380 357 -69 19 -332 29 -407 15z"/>
</g>
</svg>
